<svg width="512" height="512" viewBox="0 0 512 512" fill="none" xmlns="http://www.w3.org/2000/svg">
<g clip-path="url(#clip0)">
<path d="M259.268 35.0206C134.885 33.3406 33.3406 134.885 35.0206 259.268C36.6793 378.558 133.811 475.69 253.101 477.349C377.506 479.05 479.029 377.506 477.327 253.122C475.69 133.811 378.558 36.6793 259.268 35.0206ZM393.689 382.982C393.265 383.44 392.746 383.799 392.168 384.034C391.591 384.269 390.968 384.374 390.345 384.341C389.722 384.309 389.114 384.14 388.563 383.846C388.013 383.552 387.534 383.141 387.16 382.641C377.65 370.198 366.003 359.545 352.763 351.179C325.692 333.805 291.39 324.235 256.185 324.235C220.979 324.235 186.677 333.805 159.606 351.179C146.367 359.541 134.72 370.191 125.209 382.631C124.835 383.13 124.356 383.542 123.806 383.835C123.255 384.129 122.647 384.298 122.024 384.331C121.401 384.363 120.779 384.258 120.201 384.023C119.623 383.788 119.104 383.429 118.68 382.971C87.4797 349.29 69.806 305.28 69.0458 259.374C67.3126 155.906 152.216 69.301 255.727 69.0458C359.239 68.7906 443.323 152.844 443.323 256.185C443.359 303.197 425.63 348.487 393.689 382.982Z" fill="black"/>
<path d="M193.556 182.503C209.16 165.963 231.273 156.666 256.176 156.666C280.856 156.666 302.937 166.004 318.635 182.662C318.636 182.663 318.637 182.664 318.638 182.665C334.525 199.539 342.412 222.337 340.55 247.175C336.851 296.186 299.319 325.931 256.176 325.931C213.021 325.931 175.428 296.179 171.803 247.183C170 222.015 177.998 198.993 193.556 182.503Z" stroke="black" stroke-width="20"/>
<path d="M256.703 349.754C220.469 349.754 187.708 360.038 164.428 378.728C141.148 397.418 129.517 423.261 132.145 450.997C137.473 505.62 193.349 539.019 256.703 539.019C320.057 539.019 375.823 505.619 381.261 451.011C383.981 423.54 372.442 397.933 348.776 378.895C325.404 360.108 292.698 349.754 256.703 349.754Z" fill="#FBFBFA"/>
<path d="M121.68 409.235C121.68 409.235 166.338 463.994 256.186 462.399C348.677 460.757 393.882 408.172 393.882 408.172" stroke="black" stroke-width="30"/>
</g>
<defs>
<clipPath id="clip0">
<rect width="512" height="512" fill="white"/>
</clipPath>
</defs>
</svg>
