<svg width="576" height="512" viewBox="0 0 576 512" fill="none" xmlns="http://www.w3.org/2000/svg">
<path d="M476.511 291.994L513.525 129.088C516.197 117.326 507.259 106.125 495.201 106.125H187.658L180.481 71.0297C178.692 62.2821 170.997 56 162.07 56H81.7917C71.4132 56 63 64.4155 63 74.7969V87.3281C63 97.7095 71.4132 106.125 81.7917 106.125H136.509L191.512 375.104C178.353 382.674 169.486 396.867 169.486 413.141C169.486 437.364 189.117 457 213.333 457C237.55 457 257.181 437.364 257.181 413.141C257.181 400.865 252.133 389.774 244.008 381.812H408.158C400.034 389.774 394.986 400.865 394.986 413.141C394.986 437.364 414.617 457 438.833 457C463.05 457 482.681 437.364 482.681 413.141C482.681 395.775 472.59 380.769 457.955 373.663L462.274 354.65C464.947 342.888 456.009 331.688 443.95 331.688H233.783L228.658 306.625H458.186C466.961 306.625 474.567 300.552 476.511 291.994Z" fill="black"/>
<path d="M470 147H425.062L418 201H462.622L470 147Z" fill="#FBFBFA"/>
<path d="M458 214H414.79L408 268H450.905L458 214Z" fill="#FBFBFA"/>
<path d="M271 147H325V201H274.832L271 147Z" fill="#FBFBFA"/>
<path d="M349 147H401L394.069 201H349L349 147Z" fill="#FBFBFA"/>
<path d="M209 214H252.642L258 268H219.5L209 214Z" fill="#FBFBFA"/>
<path d="M195 147H243.986L250 201H205.132L195 147Z" fill="#FBFBFA"/>
<path d="M279 214H325V268H282.265L279 214Z" fill="#FBFBFA"/>
<path d="M349 214H391L385.402 268H349L349 214Z" fill="#FBFBFA"/>
<circle cx="212.5" cy="414.5" r="26.5" fill="#FBFBFA"/>
<circle cx="440.5" cy="414.5" r="26.5" fill="#FBFBFA"/>
</svg>
